<svg xmlns="http://www.w3.org/2000/svg" viewBox="0 0 200 200"><style>.st0{display:none}.st1{display:inline;fill:#343434}.st2,.st3,.st4{display:inline;fill:#fff}.st3,.st4{fill:#333}.st4{fill:#fdfdfd}.st5{display:none;fill:none;stroke:#000;stroke-miterlimit:10}.st6{fill:url(#XMLID_6_)}.st7{fill:url(#XMLID_7_)}</style><g id="Laag_1" class="st0"><path id="XMLID_28_" class="st1" d="M2.9 190.2c0-59.6.1-119.2-.3-178.8 0-5.1 4.1-9.2 9.2-9.2 60.8.4 121.6.2 182.4.2 2.2 3.4 1.3 7.2 1.3 10.8.1 56.4-.2 112.8.3 169.1.1 7.3-5.8 13.2-13.1 13.1-56.4-.5-112.8-.2-169.1-.3 1.2 0-3 .1-6.5-.2-2.4-.2-4.2-2.2-4.2-4.7z"/><path id="XMLID_26_" class="st2" d="M91.9 181.8c3.6 1.2 8.5-.4 11.6 6.8-13.4-4.2-25.7-3.2-38.9-1.6 8.5-3.1 11.4-8.2 10.9-16.9-.5-8-1.6-14-9.6-17.7-3.8-1.7-8.2-3.5-6.3-10.2 3.1-10.9-1.5-15.8-13.1-14-7.1 1.1-13.9 4.6-21 6.6-3.4.9-7.4 5.7-9.8 2.5-2.1-2.9-1.9-8.7-.7-12.6 11-35.4 54.8-63.4 91.5-59.1 14 1.6 15.4.2 13.2-13.7-.5-3.2-1.8-6.2-2.4-9.3-1.4-9.1 2.4-16.9 9.7-20.8 7.8-4.3 15.2 0 20.3 7.2 7.7 11 20.7 16.8 27.8 28.5 1.4 2.7 0 2.9-2.2 2.5-7.9-7.1-16-13.8-25.9-18.1-7.3-3.1-12.1-1.4-11.4 7.2 2.8 36.5-18.9 57.7-46.6 74.9-10.7 6.6-11.6 17.5-10.4 27.9 1.1 9 11.9 10.3 19.3 13 3.5 1.3 7.5 1 12.2 1 1.4 0 2.9 0 4.5.1-4.9 3.7-6.8 8.8-13.8 3.2-4.5-3.6-11.2-.5-14.4 5.8-.6 0-4.5-3.1-3.3 2.4.4 1.7-1-1.8-.2-1.3.7.5 1.2 5.6 2.3 5.8 1.9.3 3.9-.2 6.7-.1z"/><path id="XMLID_25_" class="st3" d="M91.7 182.4c-18.1 2.7-10.8-12.8-14.7-20.3 3.8 1.8 5.9 2.7 7 4.2.2.2.4.5.5.8.1.1.2.3.2.5.7 1.6 1 3.9 1.4 7.9-3.2 6.3 4.7 3.8 5.6 6.9z"/><path id="XMLID_24_" class="st4" d="M172.7 60.5c.7-.8 1.4-1.6 2.2-2.5 8.3 10.1 8.3 10.1 11.8 24.7-6-9.4-10-15.8-14-22.2z"/><path id="XMLID_23_" class="st3" d="M71.7 151.7c-6.2-3.3-8.4-6.9-5.9-14.4 2-6.1 4.2-8.4 11.4-7.1-1.8 7.1-3.6 14.2-5.5 21.5z"/></g><g id="Laag_2"><path id="XMLID_31_" class="st5" d="M76.3 130.1l-5.5 21.6-.2-.1c-.2-.1-3.9-2-5.2-4.2-1.4-2.1-1.8-4.1-1-8.2.9-3.8 2.3-6.3 3.4-7.5 1.1-1.2 2.9-2 4.6-2 2.9.1 3.9.4 3.9.4z"/><g id="XMLID_2_"><linearGradient id="XMLID_6_" gradientUnits="userSpaceOnUse" x1="163.64" y1="251.335" x2="-84.054" y2="-52.123"><stop offset="0" stop-color="#fff"/><stop offset="1"/></linearGradient><path id="XMLID_3_" class="st6" d="M68.7 131.7c-1.1 1.2-2.5 3.7-3.4 7.5-.9 4.1-.4 6 1 8.2s5 4.1 5.2 4.2l.2.1 5.5-21.6s-1-.3-4-.3c-1.6-.1-3.5.7-4.5 1.9z"/><linearGradient id="XMLID_7_" gradientUnits="userSpaceOnUse" x1="199.583" y1="221.996" x2="-48.111" y2="-81.461"><stop offset="0" stop-color="#fff"/><stop offset="1"/></linearGradient><path id="XMLID_9_" class="st7" d="M188 0H12C5.4 0 0 5.4 0 12v176c0 6.6 5.4 12 12 12h176c6.6 0 12-5.4 12-12V12c0-6.6-5.4-12-12-12zm-11 67.4c-4.5-7-2.3-5.4-8.5-11.3s-7.9-6.4-13.6-10.1c-5.8-3.8-7-4-11.8-5.2-4.8-1.3-6.6 1.6-7.3 4.3-.7 3 .6 9.6 0 14.4-.5 4.1-1.2 12.3-3.2 17.4-1.5 4.1-6.4 14.4-10.8 19.7-4.7 5.7-7.8 8.9-15.2 15.2s-17.6 12-19.3 13.3c-.9.7-4.2 3.9-5.4 5.8-1.2 1.8-2.1 4.4-2.3 5-.5 1.3-1.5 4.5-1.2 10.1.3 5.5 0 7.1 1.5 9.5 1.5 2.4 2.8 3.5 4.2 4.3 1.4.8 3.8 2 5.6 2.4 2.4.8 7.9 2.6 9.3 3 1.2.9 10.8.7 11.2.7.3 0 4.5.1 4.5.1s-3.8 3.3-5.1 4.4c-1.5 1.1-2.7 1.5-4.4 1.2-1.6-.3-3.3-1.4-4.4-2.4-1.1-1-2.3-1.5-5-1.5s-5.9 2.7-5.9 2.7c-1.9 1.5-3.6 4.6-3.6 4.6l-.3-.1s-.3-2.4-.6-4.7c-.3-2-1.1-3.8-2.8-5-2.1-1.4-5.7-3-5.7-3s1.3 2.7 1.3 5.6c0 1.9.4 7.7 1 9.2.5 1.5 1.4 3.4 2.8 4.3 1.3.9 3.1 1.4 5 1.5 1 0 3.7-.1 4.7-.3-.1-.4-.3-.6-.3-.6h.6s.9.3 1.2.3c.3 0 4.5.5 6.2 1.4 2.6 1.3 4 4.8 4.1 5-.3-.1-5-1.5-6.6-1.7-1.6-.2-9.6-1.8-16.9-1.3-5.3.1-15.4 1.3-15.4 1.3s4.4-1.7 6.1-3.3c1.7-1.6 3.6-3.6 4.3-7 .6-2.5.8-5.5.3-10s-.8-5.1-2.2-8c-1.4-2.9-2.3-2.8-4.4-4.7-2.1-1.9-5.5-2.3-7.5-4.2-2-1.9-1.9-1.8-2-5.2-.1-3.4 1.3-2.2 1.3-9.5s-5.7-7.5-12.3-7c-6.5.5-7 1.3-10.7 2.6-3.7 1.3-7.7 2.4-12 4.2-4.3 1.8-3 1.9-6.5 3.4s-4.8-3.7-4.9-7.1c-.1-3.3.8-5.7 1.8-9s7.2-16.8 12.8-22 8-10.8 21.7-19.2 13-9.2 27.6-12.6c14.6-3.4 18.2-3 22.1-3 3.9 0 12.1 1.3 15.4.9 3.2-.4 4.4-1.8 5-3.9.6-2.1-.2-7.6-.8-11.3-1.5-5.7-2.7-7.8-2.6-12.8-.2-4.6 1.4-7.2 2.5-9.3 1.4-2.7 3.2-4.1 5.5-6 2.5-1.4 5.1-3.6 10.2-2.7 5.1.8 5.8 2.6 7.3 3.7s3.9 3.8 4.8 5.2c.9 1.4 2.3 3.2 5.5 6.4s9.1 8 11.7 10.2c2.6 2.2 5.5 5.2 7 6.9s7.1 9.5 9.2 13.1c2.2 3.6 3 4.4 4.2 9.9s1.6 7.1 1.6 7.1-5.1-8.3-9.6-15.3z"/></g></g></svg>